<mxfile host="65bd71144e">
    <diagram id="cKqx8jpYu_WHQZoxO53q" name="第 1 页">
        <mxGraphModel dx="919" dy="439" grid="1" gridSize="10" guides="1" tooltips="1" connect="1" arrows="1" fold="1" page="1" pageScale="1" pageWidth="827" pageHeight="1169" background="#ffffff" math="0" shadow="0">
            <root>
                <mxCell id="0"/>
                <mxCell id="1" parent="0"/>
                <mxCell id="2" value="" style="rounded=0;whiteSpace=wrap;html=1;fillColor=#FFFFFF;strokeColor=#000000;" parent="1" vertex="1">
                    <mxGeometry x="90" y="80" width="320" height="60" as="geometry"/>
                </mxCell>
                <mxCell id="3" value="Eden区" style="text;html=1;strokeColor=none;fillColor=none;align=center;verticalAlign=middle;whiteSpace=wrap;rounded=0;fontColor=#000000;" parent="1" vertex="1">
                    <mxGeometry x="180" y="50" width="60" height="30" as="geometry"/>
                </mxCell>
                <mxCell id="4" value="" style="rounded=0;whiteSpace=wrap;html=1;fillColor=#FFFFFF;strokeColor=#000000;" parent="1" vertex="1">
                    <mxGeometry x="410" y="80" width="70" height="60" as="geometry"/>
                </mxCell>
                <mxCell id="5" value="From区" style="text;html=1;strokeColor=none;fillColor=none;align=center;verticalAlign=middle;whiteSpace=wrap;rounded=0;fontColor=#000000;" parent="1" vertex="1">
                    <mxGeometry x="422.5" y="50" width="45" height="30" as="geometry"/>
                </mxCell>
                <mxCell id="6" value="" style="rounded=0;whiteSpace=wrap;html=1;fillColor=#FFFFFF;strokeColor=#000000;" parent="1" vertex="1">
                    <mxGeometry x="480" y="80" width="70" height="60" as="geometry"/>
                </mxCell>
                <mxCell id="7" value="To区" style="text;html=1;strokeColor=none;fillColor=none;align=center;verticalAlign=middle;whiteSpace=wrap;rounded=0;fontColor=#000000;" parent="1" vertex="1">
                    <mxGeometry x="492.5" y="50" width="45" height="30" as="geometry"/>
                </mxCell>
                <mxCell id="8" value="" style="rounded=0;whiteSpace=wrap;html=1;fillColor=#FF6666;strokeColor=#000000;" parent="1" vertex="1">
                    <mxGeometry x="90" y="80" width="20" height="60" as="geometry"/>
                </mxCell>
                <mxCell id="9" value="" style="rounded=0;whiteSpace=wrap;html=1;fillColor=#6666FF;strokeColor=#000000;" parent="1" vertex="1">
                    <mxGeometry x="410" y="80" width="40" height="60" as="geometry"/>
                </mxCell>
                <mxCell id="10" value="" style="rounded=0;whiteSpace=wrap;html=1;fillColor=#FF6666;strokeColor=#000000;" parent="1" vertex="1">
                    <mxGeometry x="113" y="80" width="40" height="60" as="geometry"/>
                </mxCell>
                <mxCell id="11" value="" style="rounded=0;whiteSpace=wrap;html=1;fillColor=#FF6666;strokeColor=#000000;" parent="1" vertex="1">
                    <mxGeometry x="158" y="80" width="15" height="60" as="geometry"/>
                </mxCell>
                <mxCell id="12" value="" style="rounded=0;whiteSpace=wrap;html=1;fillColor=#FF6666;strokeColor=#000000;" parent="1" vertex="1">
                    <mxGeometry x="179" y="80" width="10" height="60" as="geometry"/>
                </mxCell>
                <mxCell id="13" value="" style="rounded=0;whiteSpace=wrap;html=1;fillColor=#FF6666;strokeColor=#000000;" parent="1" vertex="1">
                    <mxGeometry x="192" y="80" width="120" height="60" as="geometry"/>
                </mxCell>
                <mxCell id="14" value="" style="rounded=0;whiteSpace=wrap;html=1;fillColor=#FF6666;strokeColor=#000000;" parent="1" vertex="1">
                    <mxGeometry x="317" y="80" width="18" height="60" as="geometry"/>
                </mxCell>
                <mxCell id="15" value="" style="rounded=0;whiteSpace=wrap;html=1;fillColor=#FF6666;strokeColor=#000000;" parent="1" vertex="1">
                    <mxGeometry x="365" y="80" width="5" height="60" as="geometry"/>
                </mxCell>
                <mxCell id="16" value="" style="rounded=0;whiteSpace=wrap;html=1;fillColor=#FF6666;strokeColor=#000000;" parent="1" vertex="1">
                    <mxGeometry x="340" y="80" width="20" height="60" as="geometry"/>
                </mxCell>
                <mxCell id="18" value="" style="rounded=0;whiteSpace=wrap;html=1;fillColor=#FF6666;strokeColor=#000000;" vertex="1" parent="1">
                    <mxGeometry x="375" y="80" width="10" height="60" as="geometry"/>
                </mxCell>
                <mxCell id="19" value="" style="rounded=0;whiteSpace=wrap;html=1;fillColor=#FF6666;strokeColor=#000000;" vertex="1" parent="1">
                    <mxGeometry x="390" y="80" width="10" height="60" as="geometry"/>
                </mxCell>
            </root>
        </mxGraphModel>
    </diagram>
</mxfile>